<?xml version="1.0" encoding="UTF-8" standalone="no"?>
<!-- Generator: Adobe Illustrator 21.0.2, SVG Export Plug-In . SVG Version: 6.00 Build 0)  -->

<svg
   xmlns:dc="http://purl.org/dc/elements/1.1/"
   xmlns:cc="http://creativecommons.org/ns#"
   xmlns:rdf="http://www.w3.org/1999/02/22-rdf-syntax-ns#"
   xmlns:svg="http://www.w3.org/2000/svg"
   xmlns="http://www.w3.org/2000/svg"
   xmlns:sodipodi="http://sodipodi.sourceforge.net/DTD/sodipodi-0.dtd"
   xmlns:inkscape="http://www.inkscape.org/namespaces/inkscape"
   version="1.1"
   id="Layer_1"
   x="0px"
   y="0px"
   viewBox="0 0 100 100"
   style="enable-background:new 0 0 100 100;"
   xml:space="preserve"
   sodipodi:docname="file-empty.svg"
   inkscape:version="0.92.3 (2405546, 2018-03-11)"><metadata
   id="metadata9"><rdf:RDF><cc:Work
       rdf:about=""><dc:format>image/svg+xml</dc:format><dc:type
         rdf:resource="http://purl.org/dc/dcmitype/StillImage" /></cc:Work></rdf:RDF></metadata><defs
   id="defs7" /><sodipodi:namedview
   pagecolor="#ffffff"
   bordercolor="#666666"
   borderopacity="1"
   objecttolerance="10"
   gridtolerance="10"
   guidetolerance="10"
   inkscape:pageopacity="0"
   inkscape:pageshadow="2"
   inkscape:window-width="1920"
   inkscape:window-height="1005"
   id="namedview5"
   showgrid="false"
   inkscape:zoom="3.337544"
   inkscape:cx="72.796939"
   inkscape:cy="50.868751"
   inkscape:window-x="1911"
   inkscape:window-y="-9"
   inkscape:window-maximized="1"
   inkscape:current-layer="Layer_1" />
<path
   d="M87.1,28.6l-23-23C63.7,5.2,63.1,5,62.6,5h-44c-3.5,0-6.3,2.8-6.3,6.3v77.4c0,3.5,2.8,6.3,6.3,6.3h62.8  c3.5,0,6.3-2.8,6.3-6.3V30.1C87.7,29.5,87.4,29,87.1,28.6z M64.7,12.1L80.5,28H66.7c-1.2,0-2.1-0.9-2.1-2.1V12.1z M83.5,88.7  c0,1.2-0.9,2.1-2.1,2.1H18.6c-1.2,0-2.1-0.9-2.1-2.1V11.3c0-1.2,0.9-2.1,2.1-2.1h41.9v16.7c0,3.5,2.8,6.3,6.3,6.3h16.7V88.7z"
   id="path2"
   style="stroke-width:1;stroke-miterlimit:4;stroke-dasharray:none;fill:#000000;fill-opacity:1;stroke:none;stroke-opacity:1" />
</svg>