<?xml version="1.0" encoding="UTF-8" standalone="no"?>
<!-- Generator: Adobe Illustrator 18.1.1, SVG Export Plug-In . SVG Version: 6.00 Build 0)  -->

<svg
   xmlns:dc="http://purl.org/dc/elements/1.1/"
   xmlns:cc="http://creativecommons.org/ns#"
   xmlns:rdf="http://www.w3.org/1999/02/22-rdf-syntax-ns#"
   xmlns:svg="http://www.w3.org/2000/svg"
   xmlns="http://www.w3.org/2000/svg"
   xmlns:sodipodi="http://sodipodi.sourceforge.net/DTD/sodipodi-0.dtd"
   xmlns:inkscape="http://www.inkscape.org/namespaces/inkscape"
   version="1.1"
   id="Layer_1"
   x="0px"
   y="0px"
   viewBox="0 0 185.67006 148.36049"
   enable-background="new 0 0 24 24"
   xml:space="preserve"
   inkscape:version="0.48.5 r10040"
   width="100%"
   height="100%"
   sodipodi:docname="flag-15.svg"><metadata
   id="metadata9"><rdf:RDF><cc:Work
       rdf:about=""><dc:format>image/svg+xml</dc:format><dc:type
         rdf:resource="http://purl.org/dc/dcmitype/StillImage" /><dc:title></dc:title></cc:Work></rdf:RDF></metadata><defs
   id="defs7" /><sodipodi:namedview
   pagecolor="#ffffff"
   bordercolor="#666666"
   borderopacity="1"
   objecttolerance="10"
   gridtolerance="10"
   guidetolerance="10"
   inkscape:pageopacity="0"
   inkscape:pageshadow="2"
   inkscape:window-width="1172"
   inkscape:window-height="786"
   id="namedview5"
   showgrid="false"
   fit-margin-top="0"
   fit-margin-left="0"
   fit-margin-right="0"
   fit-margin-bottom="0"
   inkscape:zoom="0.86915209"
   inkscape:cx="138.04198"
   inkscape:cy="91.184595"
   inkscape:window-x="722"
   inkscape:window-y="118"
   inkscape:window-maximized="0"
   inkscape:current-layer="Layer_1" />

<path
   style="fill:#000000;fill-opacity:1;stroke:#000000;stroke-width:0.91235399;stroke-miterlimit:4;stroke-opacity:1;stroke-dasharray:none;stroke-dashoffset:0"
   d="m 22.487477,15.513705 c -12.1745,0 -22.0313,9.85678 -22.0313,22.03125 0,12.17447 9.8568,22.03125 22.0313,22.03125 12.1744,0 22.0624,-9.85678 22.0624,-22.03125 0,-12.17447 -9.888,-22.03125 -22.0624,-22.03125 z m 0,10.53125 c 6.3485,0 11.5,5.15145 11.5,11.5 0,6.34855 -5.1515,11.5 -11.5,11.5 -6.3486,0 -11.4688,-5.15145 -11.4688,-11.5 0,-6.34855 5.1202,-11.5 11.4688,-11.5 z"
   id="path3924"
   inkscape:connector-curvature="0" /><path
   style="fill:none;stroke:#ffff00;stroke-width:9;stroke-linecap:butt;stroke-linejoin:miter;stroke-miterlimit:4;stroke-opacity:1;stroke-dasharray:18.00000007, 9.00000003;stroke-dashoffset:23.40000008"
   d="m 20.595177,56.361135 c 0,0 -16.7195,86.726105 32.6122,87.499345 62.310803,-1.63936 8.6929,-137.2345351 72.598403,-139.3404751 49.3842,-1.6274 38.1311,96.5608851 38.1311,96.5608851"
   id="path3926"
   inkscape:connector-curvature="0"
   sodipodi:nodetypes="ccsc" /><path
   inkscape:connector-curvature="0"
   style="fill:#000000;fill-opacity:1;stroke:#000000;stroke-width:0.91235399;stroke-miterlimit:4;stroke-opacity:1;stroke-dasharray:none;stroke-dashoffset:0"
   d="m 163.15148,100.12899 c -12.1745,0 -22.0313,9.85678 -22.0313,22.03125 0,12.17447 9.8568,22.03125 22.0313,22.03125 12.1744,0 22.0624,-9.85678 22.0624,-22.03125 0,-12.17447 -9.888,-22.03125 -22.0624,-22.03125 z m 0,10.53125 c 6.3485,0 11.5,5.15145 11.5,11.5 0,6.34855 -5.1515,11.5 -11.5,11.5 -6.3486,0 -11.4688,-5.15145 -11.4688,-11.5 0,-6.34855 5.1202,-11.5 11.4688,-11.5 z"
   id="path3924-1" /></svg>